<?xml version="1.0" encoding="UTF-8" standalone="no"?><svg xmlns="http://www.w3.org/2000/svg" xmlns:xlink="http://www.w3.org/1999/xlink" contentStyleType="text/css" height="420px" preserveAspectRatio="none" style="width:370px;height:420px;background:#FFFFFF;" version="1.1" viewBox="0 0 370 420" width="370px" zoomAndPan="magnify"><defs/><g><g id="N_1"><rect fill="#F1F1F1" height="50" rx="12.5" ry="12.5" style="stroke:#181818;stroke-width:0.5;" width="50" x="135" y="7"/><line style="stroke:#181818;stroke-width:0.5;" x1="135" x2="185" y1="36.1201" y2="36.1201"/><text fill="#000000" font-family="sans-serif" font-size="14" lengthAdjust="spacing" textLength="22" x="149" y="28.0439">idle</text></g><g id="N_2"><rect fill="#F1F1F1" height="50" rx="12.5" ry="12.5" style="stroke:#181818;stroke-width:0.5;" width="143" x="220.5" y="7"/><line style="stroke:#181818;stroke-width:0.5;" x1="220.5" x2="363.5" y1="36.1201" y2="36.1201"/><text fill="#000000" font-family="sans-serif" font-size="14" lengthAdjust="spacing" textLength="123" x="230.5" y="28.0439">Send order request</text></g><g id="N_3"><rect fill="#F1F1F1" height="50" rx="12.5" ry="12.5" style="stroke:#181818;stroke-width:0.5;" width="209" x="84.5" y="136"/><line style="stroke:#181818;stroke-width:0.5;" x1="84.5" x2="293.5" y1="165.1201" y2="165.1201"/><text fill="#000000" font-family="sans-serif" font-size="14" lengthAdjust="spacing" textLength="189" x="94.5" y="157.0439">Select normal or special order</text></g><g id="N_4"><rect fill="#F1F1F1" height="50" rx="12.5" ry="12.5" style="stroke:#181818;stroke-width:0.5;" width="138" x="7" y="265"/><line style="stroke:#181818;stroke-width:0.5;" x1="7" x2="145" y1="294.1201" y2="294.1201"/><text fill="#000000" font-family="sans-serif" font-size="14" lengthAdjust="spacing" textLength="118" x="17" y="286.0439">Order confirmation</text></g><g id="N_5"><rect fill="#F1F1F1" height="50" rx="12.5" ry="12.5" style="stroke:#181818;stroke-width:0.5;" width="113" x="180.5" y="265"/><line style="stroke:#181818;stroke-width:0.5;" x1="180.5" x2="293.5" y1="294.1201" y2="294.1201"/><text fill="#000000" font-family="sans-serif" font-size="14" lengthAdjust="spacing" textLength="93" x="190.5" y="286.0439">Dispatch order</text></g><ellipse cx="292" cy="404" fill="none" rx="10" ry="10" style="stroke:#222222;stroke-width:1.0;"/><ellipse cx="292.5" cy="404.5" fill="#222222" rx="6" ry="6" style="stroke:none;stroke-width:1.0;"/><ellipse cx="90" cy="32" fill="#222222" rx="10" ry="10" style="stroke:none;stroke-width:1.0;"/><!--MD5=[a1e0d543606106285492e7dcf0375297]
link *start to N_1--><g id="link_*start_N_1"><path d="M100.12,32 C109.94,32 119.77,32 129.6,32 " fill="none" id="*start-to-N_1" style="stroke:#181818;stroke-width:1.0;"/><polygon fill="#181818" points="134.74,32,125.74,28,129.74,32,125.74,36,134.74,32" style="stroke:#181818;stroke-width:1.0;"/></g><!--MD5=[e479e70de51ad014afd809a45b1dd3b7]
link N_1 to N_2--><g id="link_N_1_N_2"><path d="M185.01,32 C194.97,32 204.94,32 214.9,32 " fill="none" id="N_1-to-N_2" style="stroke:#181818;stroke-width:1.0;"/><polygon fill="#181818" points="220.11,32,211.11,28,215.11,32,211.11,36,220.11,32" style="stroke:#181818;stroke-width:1.0;"/></g><!--MD5=[faffcdd34262b02527fa0ab010c9e32e]
link N_2 to N_3--><g id="link_N_2_N_3"><path d="M272.38,57.19 C255.13,78.46 230.01,109.44 211.85,131.83 " fill="none" id="N_2-to-N_3" style="stroke:#181818;stroke-width:1.0;"/><polygon fill="#181818" points="208.54,135.9,217.3099,131.4179,211.6843,132.0124,211.0898,126.3869,208.54,135.9" style="stroke:#181818;stroke-width:1.0;"/><text fill="#000000" font-family="sans-serif" font-size="13" lengthAdjust="spacing" textLength="37" x="248" y="102.8979">Action</text></g><!--MD5=[1cb4dc3c0a2d3d5a68e4b8b192b940ef]
link N_3 to N_4--><g id="link_N_3_N_4"><path d="M167.48,186.19 C148.47,207.55 120.76,238.7 100.82,261.11 " fill="none" id="N_3-to-N_4" style="stroke:#181818;stroke-width:1.0;"/><polygon fill="#181818" points="97.44,264.9,106.4176,260.8499,100.7698,261.1701,100.4497,255.5223,97.44,264.9" style="stroke:#181818;stroke-width:1.0;"/><text fill="#000000" font-family="sans-serif" font-size="13" lengthAdjust="spacing" textLength="117" x="141" y="231.8979">Confirm order(Event)</text></g><!--MD5=[4c286cd8f1bb3f8ac1767d75cee84f64]
link N_4 to N_5--><g id="link_N_4_N_5"><path d="M145.18,290 C155.16,290 165.13,290 175.11,290 " fill="none" id="N_4-to-N_5" style="stroke:#181818;stroke-width:1.0;"/><polygon fill="#181818" points="180.33,290,171.33,286,175.33,290,171.33,294,180.33,290" style="stroke:#181818;stroke-width:1.0;"/></g><!--MD5=[92c1ce9c2f4d3d991a0445b1240d90b1]
link N_2 to N_6--><g id="link_N_2_N_6"><path d="M297.24,57.02 C301.59,77.82 307.59,108.76 311,136 C322.57,228.37 321.89,251.96 325,345 C325.28,353.44 327.9,356.07 325,364 C320.73,375.66 311.25,386.24 303.55,393.43 " fill="none" id="N_2-to-N_6" style="stroke:#181818;stroke-width:1.0;"/><polygon fill="#181818" points="299.49,397.05,308.862,394.0224,303.2136,393.7131,303.5229,388.0647,299.49,397.05" style="stroke:#181818;stroke-width:1.0;"/><text fill="#000000" font-family="sans-serif" font-size="13" lengthAdjust="spacing" textLength="21" x="322" y="231.8979">exit</text></g><!--MD5=[71ac3fe825be4c1d2d565ada9878911e]
link N_5 to N_6--><g id="link_N_5_N_6"><path d="M245.18,315.24 C250.42,329.72 257.77,348.3 266,364 C271.01,373.55 277.8,383.66 283.18,391.19 " fill="none" id="N_5-to-N_6" style="stroke:#181818;stroke-width:1.0;"/><polygon fill="#181818" points="286.32,395.52,284.2574,385.8896,283.3774,391.4776,277.7894,390.5976,286.32,395.52" style="stroke:#181818;stroke-width:1.0;"/><text fill="#000000" font-family="sans-serif" font-size="13" lengthAdjust="spacing" textLength="53" x="267" y="360.8979">complete</text></g></g></svg>