<?xml version="1.0" encoding="UTF-8" standalone="no"?><svg xmlns="http://www.w3.org/2000/svg" xmlns:xlink="http://www.w3.org/1999/xlink" contentStyleType="text/css" height="385px" preserveAspectRatio="none" style="width:330px;height:385px;background:#FFFFFF;" version="1.1" viewBox="0 0 330 385" width="330px" zoomAndPan="magnify"><defs/><g><!--MD5=[d53651f891be2d280b1927ff18674899]
cluster N_3--><g id="cluster_N_3"><path d="M100.5,130 L304.5,130 A12.5,12.5 0 0 1 317,142.5 L317,159.1201 L88,159.1201 L88,142.5 A12.5,12.5 0 0 1 100.5,130 " fill="#F1F1F1" style="stroke:#F1F1F1;stroke-width:1.0;"/><rect height="249" rx="12.5" ry="12.5" style="stroke:#181818;stroke-width:0.5;fill:none;" width="229" x="88" y="130"/><line style="stroke:#181818;stroke-width:0.5;fill:none;" x1="88" x2="317" y1="159.1201" y2="159.1201"/><text fill="#000000" font-family="sans-serif" font-size="14" lengthAdjust="spacing" textLength="75" x="165" y="150.0439">EmptyName</text></g><g id="N_3.N_3_1"><rect fill="#F1F1F1" height="50" rx="12.5" ry="12.5" style="stroke:#181818;stroke-width:0.5;" width="50" x="243" y="176"/><line style="stroke:#181818;stroke-width:0.5;" x1="243" x2="293" y1="205.1201" y2="205.1201"/><text fill="#000000" font-family="sans-serif" font-size="14" lengthAdjust="spacing" textLength="10" x="263" y="197.0439">C</text></g><g id="N_3.N_3_2"><rect fill="#F1F1F1" height="50" rx="12.5" ry="12.5" style="stroke:#181818;stroke-width:0.5;" width="50" x="226" y="305"/><line style="stroke:#181818;stroke-width:0.5;" x1="226" x2="276" y1="334.1201" y2="334.1201"/><text fill="#000000" font-family="sans-serif" font-size="14" lengthAdjust="spacing" textLength="10" x="246" y="326.0439">D</text></g><ellipse cx="198" cy="201" fill="#222222" rx="10" ry="10" style="stroke:none;stroke-width:1.0;"/><ellipse cx="142" cy="201" fill="#F1F1F1" rx="11" ry="11" style="stroke:#181818;stroke-width:0.5;"/><text fill="#000000" font-family="sans-serif" font-size="14" lengthAdjust="spacing" textLength="9" x="137.5" y="207.4839">H</text><g id="N_1"><rect fill="#F1F1F1" height="50" rx="12.5" ry="12.5" style="stroke:#181818;stroke-width:0.5;" width="50" x="13" y="305"/><line style="stroke:#181818;stroke-width:0.5;" x1="13" x2="63" y1="334.1201" y2="334.1201"/><text fill="#000000" font-family="sans-serif" font-size="14" lengthAdjust="spacing" textLength="9" x="33.5" y="326.0439">A</text></g><g id="N_2"><rect fill="#F1F1F1" height="50" rx="12.5" ry="12.5" style="stroke:#181818;stroke-width:0.5;" width="50" x="7" y="7"/><line style="stroke:#181818;stroke-width:0.5;" x1="7" x2="57" y1="36.1201" y2="36.1201"/><text fill="#000000" font-family="sans-serif" font-size="14" lengthAdjust="spacing" textLength="9" x="27.5" y="28.0439">B</text></g><g id="N_4"><rect fill="#F1F1F1" height="50" rx="12.5" ry="12.5" style="stroke:#181818;stroke-width:0.5;" width="50" x="147" y="7"/><line style="stroke:#181818;stroke-width:0.5;" x1="147" x2="197" y1="36.1201" y2="36.1201"/><text fill="#000000" font-family="sans-serif" font-size="14" lengthAdjust="spacing" textLength="8" x="168" y="28.0439">X</text></g><ellipse cx="102" cy="32" fill="#222222" rx="10" ry="10" style="stroke:none;stroke-width:1.0;"/><!--MD5=[25d2396c0ef712f4365e0e22cdacc4d1]
link *start*N_3 to N_3_1--><g id="link_*start*N_3_N_3_1"><path d="M208.12,201 C217.94,201 227.77,201 237.6,201 " fill="none" id="*start*N_3-to-N_3_1" style="stroke:#181818;stroke-width:1.0;"/><polygon fill="#181818" points="242.74,201,233.74,197,237.74,201,233.74,205,242.74,201" style="stroke:#181818;stroke-width:1.0;"/></g><!--MD5=[ccd68096c09cc2399ee16d086e6618f5]
link N_3_1 to N_3_2--><g id="link_N_3_1_N_3_2"><path d="M244.98,226.18 C238.15,234.9 231.55,245.25 228,256 C223.22,270.5 227.36,286.69 233.38,300.13 " fill="none" id="N_3_1-to-N_3_2" style="stroke:#181818;stroke-width:1.0;"/><polygon fill="#181818" points="235.67,304.95,235.4241,295.1042,233.5259,300.4331,228.197,298.5348,235.67,304.95" style="stroke:#181818;stroke-width:1.0;"/><text fill="#000000" font-family="sans-serif" font-size="13" lengthAdjust="spacing" textLength="7" x="229" y="271.8979">c</text></g><!--MD5=[240785e12faa197ea7722194d40e327c]
link N_3_2 to N_3_1--><g id="link_N_3_2_N_3_1"><path d="M254.23,304.9 C257.02,284.01 261.08,253.7 264.07,231.39 " fill="none" id="N_3_2-to-N_3_1" style="stroke:#181818;stroke-width:1.0;"/><polygon fill="#181818" points="264.76,226.19,259.612,234.5863,264.1029,231.1466,267.5426,235.6376,264.76,226.19" style="stroke:#181818;stroke-width:1.0;"/><text fill="#000000" font-family="sans-serif" font-size="13" lengthAdjust="spacing" textLength="7" x="261" y="271.8979">d</text></g><!--MD5=[0171e36e781a13bad4bed3291cc358a3]
link *historical*N_3 to N_3_1--><g id="link_*historical*N_3_N_3_1"><path d="M142.29,189.87 C143.61,165.23 150.77,106.61 188.5,85.5 C226.78,64.09 250.56,130.03 261.28,170.97 " fill="none" id="*historical*N_3-to-N_3_1" style="stroke:#181818;stroke-width:1.0;"/><polygon fill="#181818" points="262.53,175.83,264.1672,166.1182,261.2871,170.9869,256.4183,168.1068,262.53,175.83" style="stroke:#181818;stroke-width:1.0;"/></g><!--MD5=[87f0fd7328837c2df6de4ee177cc64a0]
link *start to N_4--><g id="link_*start_N_4"><path d="M112.12,32 C121.94,32 131.77,32 141.6,32 " fill="none" id="*start-to-N_4" style="stroke:#181818;stroke-width:1.0;"/><polygon fill="#181818" points="146.74,32,137.74,28,141.74,32,137.74,36,146.74,32" style="stroke:#181818;stroke-width:1.0;"/></g><!--MD5=[e479e70de51ad014afd809a45b1dd3b7]
link N_1 to N_2--><g id="link_N_1_N_2"><path d="M37.51,304.86 C36.42,250.92 33.78,120.79 32.59,62.32 " fill="none" id="N_1-to-N_2" style="stroke:#181818;stroke-width:1.0;"/><polygon fill="#181818" points="32.49,57.22,28.6708,66.2982,32.59,62.219,36.6692,66.1382,32.49,57.22" style="stroke:#181818;stroke-width:1.0;"/><text fill="#000000" font-family="sans-serif" font-size="13" lengthAdjust="spacing" textLength="7" x="37" y="207.3979">a</text></g><!--MD5=[f73418f33e71675f14f0c0acb8190792]
link N_2 to N_1--><g id="link_N_2_N_1"><path d="M27.87,57.01 C25.32,73.09 22.3,94.74 21,114 C17.64,163.66 16.98,176.39 21,226 C22.78,247.99 25.41,253.23 29,275 C30.31,282.92 31.73,291.5 33.05,299.44 " fill="none" id="N_2-to-N_1" style="stroke:#181818;stroke-width:1.0;"/><polygon fill="#181818" points="33.95,304.81,36.4025,295.2714,33.1211,299.8792,28.5133,296.5977,33.95,304.81" style="stroke:#181818;stroke-width:1.0;"/><text fill="#000000" font-family="sans-serif" font-size="13" lengthAdjust="spacing" textLength="3" x="22" y="207.3979">f</text></g><!--MD5=[c11ff992283a6ddd398d10071c1607f2]
link N_2 to *historical*N_3--><g id="link_N_2_*historical*N_3"><path d="M57.32,53.1 C83.92,74.45 122.54,106.19 127,114 C139.73,136.31 142.18,166.77 142.38,184.81 " fill="none" id="N_2-to-*historical*N_3" style="stroke:#181818;stroke-width:1.0;"/><polygon fill="#181818" points="142.38,189.99,146.38,180.99,142.38,184.99,138.38,180.99,142.38,189.99" style="stroke:#181818;stroke-width:1.0;"/></g><!--MD5=[debac8beee44b4157eda940073a4ebeb]
link N_3 to N_1--><g id="link_N_3_N_1"><path d="M87.9236,219.6837 C87.8686,219.8039 87.8135,219.9247 87.7581,220.0459 C87.5367,220.5309 87.3118,221.0232 87.0837,221.5227 C86.6275,222.5217 86.1583,223.5492 85.6771,224.6028 C83.7525,228.8174 81.6369,233.4503 79.4,238.3488 C70.4525,257.9425 59.565,281.785 51.2,300.1 " fill="none" id="N_3-to-N_1" style="stroke:#181818;stroke-width:1.0;"/><polygon fill="#181818" points="49.01,304.89,56.3757,298.3519,51.079,300.3382,49.0928,295.0415,49.01,304.89" style="stroke:#181818;stroke-width:1.0;"/><text fill="#000000" font-family="sans-serif" font-size="13" lengthAdjust="spacing" textLength="7" x="71" y="271.8979">e</text></g><!--MD5=[becb1b6bd9036bb84e10564eb6bd3402]
link N_4 to N_3--><g id="link_N_4_N_3"><path d="M151,57.33 C138.8,72.66 124.09,93.39 115,114 C113.0875,118.3375 111.3595,122.8856 109.7995,127.5297 C109.6044,128.1103 109.4121,128.6923 109.2223,129.2756 C109.1748,129.4214 109.1275,129.5673 109.0804,129.7133 " fill="none" id="N_4-to-N_3" style="stroke:#181818;stroke-width:1.0;"/><polygon fill="#181818" points="109.0804,129.7133,115.6519,122.3774,110.6165,124.9551,108.0388,119.9197,109.0804,129.7133" style="stroke:#181818;stroke-width:1.0;"/><text fill="#000000" font-family="sans-serif" font-size="13" lengthAdjust="spacing" textLength="7" x="130" y="102.8979">x</text></g></g></svg>