<?xml version="1.0" encoding="UTF-8" standalone="no"?><svg xmlns="http://www.w3.org/2000/svg" xmlns:xlink="http://www.w3.org/1999/xlink" contentStyleType="text/css" height="514px" preserveAspectRatio="none" style="width:194px;height:514px;background:#FFFFFF;" version="1.1" viewBox="0 0 194 514" width="194px" zoomAndPan="magnify"><defs/><g><!--MD5=[43ce935807bdbf6ac6366862e6ff16ca]
cluster N_2--><g id="cluster_N_2"><path d="M19.5,130 L168.5,130 A12.5,12.5 0 0 1 181,142.5 L181,159.1201 L7,159.1201 L7,142.5 A12.5,12.5 0 0 1 19.5,130 " fill="#F1F1F1" style="stroke:#F1F1F1;stroke-width:1.0;"/><rect height="378" rx="12.5" ry="12.5" style="stroke:#181818;stroke-width:0.5;fill:none;" width="174" x="7" y="130"/><line style="stroke:#181818;stroke-width:0.5;fill:none;" x1="7" x2="181" y1="159.1201" y2="159.1201"/><text fill="#000000" font-family="sans-serif" font-size="14" lengthAdjust="spacing" textLength="37" x="75.5" y="150.0439">Radio</text></g><g id="N_2.N_2_1"><rect fill="#F1F1F1" height="50" rx="12.5" ry="12.5" style="stroke:#181818;stroke-width:0.5;" width="50" x="88" y="176"/><line style="stroke:#181818;stroke-width:0.5;" x1="88" x2="138" y1="205.1201" y2="205.1201"/><text fill="#000000" font-family="sans-serif" font-size="14" lengthAdjust="spacing" textLength="8" x="109" y="197.0439">1</text></g><g id="N_2.N_2_2"><rect fill="#F1F1F1" height="50" rx="12.5" ry="12.5" style="stroke:#181818;stroke-width:0.5;" width="50" x="55" y="305"/><line style="stroke:#181818;stroke-width:0.5;" x1="55" x2="105" y1="334.1201" y2="334.1201"/><text fill="#000000" font-family="sans-serif" font-size="14" lengthAdjust="spacing" textLength="8" x="76" y="326.0439">2</text></g><g id="N_2.N_2_3"><rect fill="#F1F1F1" height="50" rx="12.5" ry="12.5" style="stroke:#181818;stroke-width:0.5;" width="50" x="70" y="434"/><line style="stroke:#181818;stroke-width:0.5;" x1="70" x2="120" y1="463.1201" y2="463.1201"/><text fill="#000000" font-family="sans-serif" font-size="14" lengthAdjust="spacing" textLength="8" x="91" y="455.0439">3</text></g><ellipse cx="42" cy="201" fill="#F1F1F1" rx="11" ry="11" style="stroke:#181818;stroke-width:0.5;"/><text fill="#000000" font-family="sans-serif" font-size="14" lengthAdjust="spacing" textLength="9" x="37.5" y="207.4839">H</text><g id="N_1"><rect fill="#F1F1F1" height="50" rx="12.5" ry="12.5" style="stroke:#181818;stroke-width:0.5;" width="50" x="91" y="7"/><line style="stroke:#181818;stroke-width:0.5;" x1="91" x2="141" y1="36.1201" y2="36.1201"/><text fill="#000000" font-family="sans-serif" font-size="14" lengthAdjust="spacing" textLength="20" x="106" y="28.0439">CD</text></g><ellipse cx="46" cy="32" fill="#222222" rx="10" ry="10" style="stroke:none;stroke-width:1.0;"/><!--MD5=[5e6fe70d628607932926a9fd615a8eda]
link *historical*N_2 to N_2_1--><g id="link_*historical*N_2_N_2_1"><path d="M53.09,201 C62.92,201 72.76,201 82.59,201 " fill="none" id="*historical*N_2-to-N_2_1" style="stroke:#181818;stroke-width:1.0;"/><polygon fill="#181818" points="87.73,201,78.73,197,82.73,201,78.73,205,87.73,201" style="stroke:#181818;stroke-width:1.0;"/></g><!--MD5=[85ee8afd7a71d95eec51875e11c16e49]
link N_2_1 to N_2_2--><g id="link_N_2_1_N_2_2"><path d="M90.55,226.26 C83.89,234.99 77.45,245.33 74,256 C69.51,269.89 70.25,285.99 72.44,299.54 " fill="none" id="N_2_1-to-N_2_2" style="stroke:#181818;stroke-width:1.0;"/><polygon fill="#181818" points="73.37,304.79,75.7419,295.231,72.4994,299.8664,67.8641,296.6239,73.37,304.79" style="stroke:#181818;stroke-width:1.0;"/><text fill="#000000" font-family="sans-serif" font-size="13" lengthAdjust="spacing" textLength="8" x="75" y="271.8979">+</text></g><!--MD5=[6baceb3de16741fd2c71b5f2a676b2ff]
link N_2_2 to N_2_1--><g id="link_N_2_2_N_2_1"><path d="M86.26,304.9 C91.71,283.92 99.63,253.45 105.44,231.11 " fill="none" id="N_2_2-to-N_2_1" style="stroke:#181818;stroke-width:1.0;"/><polygon fill="#181818" points="106.72,226.19,100.587,233.8962,105.4637,231.0296,108.3303,235.9063,106.72,226.19" style="stroke:#181818;stroke-width:1.0;"/><text fill="#000000" font-family="sans-serif" font-size="13" lengthAdjust="spacing" textLength="4" x="100" y="271.8979">-</text></g><!--MD5=[4da87cace1b49a9b0127d7a92b3f523a]
link N_2_2 to N_2_3--><g id="link_N_2_2_N_2_3"><path d="M75.99,355.16 C74.28,369.45 73.24,387.86 76,404 C77.41,412.28 79.96,420.97 82.74,428.9 " fill="none" id="N_2_2-to-N_2_3" style="stroke:#181818;stroke-width:1.0;"/><polygon fill="#181818" points="84.5,433.73,85.2003,423.9061,82.7993,429.0281,77.6773,426.6272,84.5,433.73" style="stroke:#181818;stroke-width:1.0;"/><text fill="#000000" font-family="sans-serif" font-size="13" lengthAdjust="spacing" textLength="8" x="77" y="400.8979">+</text></g><!--MD5=[22c0e72bd6bc933074dd467f88677a1d]
link N_2_3 to N_2_2--><g id="link_N_2_3_N_2_2"><path d="M92.49,433.98 C90.97,419.74 88.95,401.33 87,385 C86.05,377.07 84.97,368.49 83.94,360.55 " fill="none" id="N_2_3-to-N_2_2" style="stroke:#181818;stroke-width:1.0;"/><polygon fill="#181818" points="83.24,355.18,80.4307,364.6197,83.883,360.1385,88.3642,363.5908,83.24,355.18" style="stroke:#181818;stroke-width:1.0;"/><text fill="#000000" font-family="sans-serif" font-size="13" lengthAdjust="spacing" textLength="4" x="91" y="400.8979">-</text></g><!--MD5=[a1e0d543606106285492e7dcf0375297]
link *start to N_1--><g id="link_*start_N_1"><path d="M56.12,32 C65.94,32 75.77,32 85.6,32 " fill="none" id="*start-to-N_1" style="stroke:#181818;stroke-width:1.0;"/><polygon fill="#181818" points="90.74,32,81.74,28,85.74,32,81.74,36,90.74,32" style="stroke:#181818;stroke-width:1.0;"/></g><!--MD5=[f4a464ff0846abf5bcb194ad5ed92c06]
link N_1 to *historical*N_2--><g id="link_N_1_*historical*N_2"><path d="M100.58,57.15 C90.94,72.91 78.75,94.17 70,114 C59.31,138.21 50.56,167.83 45.83,185.23 " fill="none" id="N_1-to-*historical*N_2" style="stroke:#181818;stroke-width:1.0;"/><polygon fill="#181818" points="44.49,190.22,50.6655,182.5477,45.773,185.3874,42.9333,180.4949,44.49,190.22" style="stroke:#181818;stroke-width:1.0;"/></g><!--MD5=[f73418f33e71675f14f0c0acb8190792]
link N_2 to N_1--><g id="link_N_2_N_1"><path d="M158.8079,129.653 C158.6427,129.0602 158.4761,128.4682 158.308,127.8772 C156.9636,123.1492 155.5275,118.4875 154,114 C147.92,96.14 139.06,77 131.42,61.81 " fill="none" id="N_2-to-N_1" style="stroke:#181818;stroke-width:1.0;"/><polygon fill="#181818" points="129.1,57.23,129.6226,67.065,131.3703,61.6849,136.7504,63.4326,129.1,57.23" style="stroke:#181818;stroke-width:1.0;"/><text fill="#000000" font-family="sans-serif" font-size="13" lengthAdjust="spacing" textLength="8" x="151" y="102.8979">F</text></g></g></svg>